<svg width="311" height="166" viewBox="0 0 311 166" fill="none" xmlns="http://www.w3.org/2000/svg">
<g clip-path="url(#clip0_36_1311)">
<rect width="311" height="165.679" rx="11.057" fill="#5243D2"/>
<ellipse cx="180.071" cy="80.0316" rx="57.9176" ry="56.8646" fill="#3E32A4"/>
<ellipse cx="282.568" cy="81.7867" rx="85.2968" ry="83.8928" fill="#3E32A4"/>
<ellipse cx="13.3385" cy="15.7957" rx="27.3792" ry="27.0282" fill="#3E32A4"/>
<circle cx="243.945" cy="114.716" r="16.5855" fill="#EB001B"/>
<circle cx="264.677" cy="114.716" r="16.5855" fill="url(#paint0_linear_36_1311)"/>
<path d="M235.271 146.066L235.276 142.246C235.276 141.8 235.157 141.451 234.917 141.201C234.681 140.947 234.373 140.819 233.994 140.819C233.773 140.819 233.563 140.871 233.364 140.974C233.165 141.074 233.002 141.232 232.877 141.45C232.752 141.663 232.689 141.938 232.689 142.273L232.169 142.063C232.162 141.639 232.249 141.269 232.429 140.952C232.614 140.631 232.864 140.383 233.181 140.206C233.498 140.029 233.856 139.94 234.254 139.94C234.877 139.94 235.367 140.13 235.724 140.51C236.082 140.886 236.261 141.393 236.261 142.03L236.255 146.066H235.271ZM228.128 146.066V140.095H229.007V141.693H229.118V146.066H228.128ZM231.705 146.066L231.711 142.284C231.711 141.827 231.593 141.47 231.357 141.212C231.121 140.95 230.808 140.819 230.417 140.819C230.03 140.819 229.717 140.952 229.477 141.217C229.237 141.483 229.118 141.835 229.118 142.273L228.598 141.964C228.598 141.577 228.69 141.23 228.874 140.924C229.059 140.619 229.309 140.379 229.626 140.206C229.943 140.029 230.303 139.94 230.704 139.94C231.106 139.94 231.456 140.025 231.755 140.195C232.053 140.364 232.284 140.607 232.446 140.924C232.608 141.238 232.689 141.612 232.689 142.047L232.684 146.066H231.705ZM239.398 146.232C238.952 146.232 238.578 146.151 238.275 145.989C237.977 145.823 237.75 145.605 237.595 145.336C237.444 145.067 237.369 144.772 237.369 144.452C237.369 144.138 237.428 143.867 237.546 143.639C237.667 143.407 237.837 143.215 238.054 143.064C238.272 142.909 238.532 142.788 238.834 142.699C239.118 142.622 239.435 142.555 239.785 142.5C240.139 142.441 240.496 142.388 240.857 142.34C241.218 142.292 241.556 142.246 241.869 142.202L241.515 142.406C241.526 141.875 241.419 141.483 241.195 141.229C240.973 140.974 240.59 140.847 240.045 140.847C239.683 140.847 239.366 140.93 239.094 141.096C238.825 141.258 238.635 141.523 238.524 141.892L237.59 141.61C237.734 141.087 238.012 140.676 238.425 140.377C238.838 140.079 239.381 139.929 240.056 139.929C240.597 139.929 241.062 140.027 241.449 140.222C241.84 140.414 242.12 140.705 242.289 141.096C242.374 141.28 242.427 141.481 242.449 141.698C242.472 141.912 242.483 142.137 242.483 142.373V146.066H241.609V144.634L241.814 144.767C241.589 145.25 241.274 145.614 240.868 145.861C240.467 146.108 239.976 146.232 239.398 146.232ZM239.547 145.408C239.901 145.408 240.207 145.345 240.465 145.22C240.726 145.091 240.937 144.923 241.095 144.717C241.253 144.507 241.357 144.278 241.405 144.031C241.46 143.847 241.489 143.643 241.493 143.418C241.5 143.189 241.504 143.014 241.504 142.893L241.847 143.042C241.526 143.086 241.211 143.128 240.902 143.169C240.592 143.21 240.299 143.254 240.022 143.302C239.746 143.346 239.497 143.399 239.276 143.462C239.114 143.514 238.961 143.58 238.817 143.661C238.677 143.742 238.563 143.847 238.474 143.976C238.39 144.101 238.347 144.258 238.347 144.446C238.347 144.608 238.388 144.763 238.469 144.91C238.554 145.058 238.683 145.178 238.856 145.27C239.033 145.362 239.263 145.408 239.547 145.408ZM246.176 146.226C245.464 146.226 244.88 146.071 244.423 145.762C243.97 145.449 243.692 145.012 243.588 144.452L244.595 144.291C244.676 144.616 244.862 144.874 245.153 145.065C245.444 145.253 245.805 145.347 246.237 145.347C246.646 145.347 246.966 145.262 247.198 145.093C247.431 144.923 247.547 144.693 247.547 144.402C247.547 144.232 247.508 144.096 247.431 143.993C247.353 143.886 247.193 143.786 246.95 143.694C246.71 143.602 246.347 143.492 245.861 143.363C245.334 143.222 244.919 143.077 244.617 142.926C244.314 142.775 244.099 142.6 243.97 142.401C243.841 142.202 243.776 141.96 243.776 141.676C243.776 141.326 243.872 141.02 244.064 140.759C244.255 140.493 244.523 140.289 244.865 140.145C245.212 140.001 245.614 139.929 246.071 139.929C246.524 139.929 246.929 140.001 247.287 140.145C247.644 140.289 247.932 140.493 248.149 140.759C248.371 141.02 248.501 141.326 248.542 141.676L247.536 141.859C247.488 141.538 247.333 141.286 247.071 141.101C246.813 140.917 246.48 140.819 246.071 140.808C245.684 140.794 245.369 140.862 245.125 141.013C244.886 141.164 244.766 141.369 244.766 141.627C244.766 141.77 244.81 141.894 244.899 141.997C244.991 142.1 245.158 142.198 245.402 142.29C245.649 142.382 246.006 142.487 246.474 142.605C247.001 142.738 247.416 142.883 247.718 143.042C248.024 143.197 248.242 143.381 248.371 143.595C248.5 143.805 248.564 144.065 248.564 144.374C248.564 144.949 248.352 145.403 247.928 145.734C247.504 146.062 246.92 146.226 246.176 146.226ZM253.117 146.066C252.763 146.136 252.413 146.164 252.067 146.149C251.724 146.138 251.418 146.07 251.149 145.944C250.88 145.815 250.675 145.616 250.535 145.347C250.417 145.111 250.353 144.874 250.342 144.634C250.334 144.391 250.331 144.116 250.331 143.81V138.437H251.315V143.766C251.315 144.009 251.317 144.218 251.32 144.391C251.328 144.564 251.366 144.713 251.436 144.839C251.569 145.075 251.779 145.213 252.067 145.253C252.358 145.294 252.708 145.283 253.117 145.22V146.066ZM249.12 140.908V140.095H253.117V140.908H249.12ZM256.668 146.232C256.082 146.232 255.57 146.103 255.131 145.845C254.696 145.583 254.357 145.22 254.114 144.756C253.871 144.288 253.749 143.742 253.749 143.119C253.749 142.467 253.869 141.903 254.108 141.428C254.348 140.948 254.682 140.58 255.109 140.322C255.54 140.06 256.045 139.929 256.624 139.929C257.225 139.929 257.735 140.068 258.155 140.344C258.579 140.62 258.896 141.015 259.106 141.527C259.32 142.039 259.412 142.649 259.383 143.357H258.388V143.003C258.376 142.27 258.227 141.722 257.94 141.361C257.652 140.996 257.225 140.814 256.657 140.814C256.049 140.814 255.586 141.009 255.269 141.4C254.953 141.791 254.794 142.351 254.794 143.081C254.794 143.785 254.953 144.33 255.269 144.717C255.586 145.104 256.038 145.297 256.624 145.297C257.018 145.297 257.361 145.207 257.652 145.027C257.943 144.846 258.172 144.586 258.338 144.247L259.283 144.573C259.051 145.1 258.701 145.509 258.233 145.801C257.768 146.088 257.247 146.232 256.668 146.232ZM254.462 143.357V142.566H258.874V143.357H254.462ZM260.614 146.066V140.095H261.493V141.538L261.349 141.35C261.419 141.166 261.509 140.996 261.62 140.842C261.734 140.687 261.861 140.56 262.001 140.46C262.156 140.335 262.331 140.239 262.526 140.173C262.722 140.106 262.921 140.068 263.123 140.056C263.326 140.042 263.516 140.055 263.693 140.095V141.018C263.487 140.963 263.26 140.948 263.013 140.974C262.766 141 262.537 141.09 262.327 141.245C262.136 141.381 261.986 141.547 261.88 141.743C261.776 141.938 261.705 142.15 261.664 142.378C261.623 142.603 261.603 142.834 261.603 143.07V146.066H260.614ZM267.146 146.232C266.541 146.232 266.027 146.097 265.603 145.828C265.183 145.555 264.863 145.181 264.641 144.706C264.42 144.23 264.306 143.689 264.299 143.081C264.306 142.458 264.422 141.91 264.647 141.439C264.875 140.963 265.202 140.593 265.625 140.327C266.049 140.062 266.56 139.929 267.157 139.929C267.787 139.929 268.329 140.084 268.782 140.394C269.239 140.703 269.545 141.127 269.7 141.665L268.727 141.958C268.602 141.612 268.397 141.343 268.113 141.151C267.833 140.959 267.511 140.864 267.146 140.864C266.737 140.864 266.399 140.959 266.134 141.151C265.869 141.339 265.672 141.601 265.543 141.936C265.414 142.268 265.347 142.649 265.344 143.081C265.351 143.744 265.504 144.28 265.802 144.689C266.105 145.095 266.552 145.297 267.146 145.297C267.536 145.297 267.861 145.209 268.119 145.032C268.377 144.852 268.572 144.592 268.705 144.253L269.7 144.512C269.494 145.069 269.171 145.495 268.732 145.79C268.294 146.084 267.765 146.232 267.146 146.232ZM272.472 146.232C272.026 146.232 271.652 146.151 271.349 145.989C271.051 145.823 270.824 145.605 270.669 145.336C270.518 145.067 270.443 144.772 270.443 144.452C270.443 144.138 270.502 143.867 270.62 143.639C270.741 143.407 270.911 143.215 271.128 143.064C271.346 142.909 271.605 142.788 271.908 142.699C272.191 142.622 272.508 142.555 272.859 142.5C273.212 142.441 273.57 142.388 273.931 142.34C274.292 142.292 274.63 142.246 274.943 142.202L274.589 142.406C274.6 141.875 274.493 141.483 274.268 141.229C274.047 140.974 273.664 140.847 273.118 140.847C272.757 140.847 272.44 140.93 272.168 141.096C271.898 141.258 271.709 141.523 271.598 141.892L270.664 141.61C270.807 141.087 271.086 140.676 271.499 140.377C271.911 140.079 272.455 139.929 273.129 139.929C273.671 139.929 274.136 140.027 274.523 140.222C274.913 140.414 275.193 140.705 275.363 141.096C275.448 141.28 275.501 141.481 275.523 141.698C275.545 141.912 275.556 142.137 275.556 142.373V146.066H274.683V144.634L274.888 144.767C274.663 145.25 274.348 145.614 273.942 145.861C273.54 146.108 273.05 146.232 272.472 146.232ZM272.621 145.408C272.975 145.408 273.281 145.345 273.539 145.22C273.8 145.091 274.01 144.923 274.169 144.717C274.327 144.507 274.431 144.278 274.478 144.031C274.534 143.847 274.563 143.643 274.567 143.418C274.574 143.189 274.578 143.014 274.578 142.893L274.921 143.042C274.6 143.086 274.285 143.128 273.975 143.169C273.666 143.21 273.373 143.254 273.096 143.302C272.82 143.346 272.571 143.399 272.35 143.462C272.188 143.514 272.035 143.58 271.891 143.661C271.751 143.742 271.637 143.847 271.548 143.976C271.464 144.101 271.421 144.258 271.421 144.446C271.421 144.608 271.462 144.763 271.543 144.91C271.628 145.058 271.757 145.178 271.93 145.27C272.107 145.362 272.337 145.408 272.621 145.408ZM276.994 146.066V140.095H277.873V141.538L277.729 141.35C277.799 141.166 277.89 140.996 278 140.842C278.114 140.687 278.241 140.56 278.382 140.46C278.536 140.335 278.711 140.239 278.907 140.173C279.102 140.106 279.301 140.068 279.504 140.056C279.707 140.042 279.896 140.055 280.073 140.095V141.018C279.867 140.963 279.64 140.948 279.393 140.974C279.146 141 278.918 141.09 278.708 141.245C278.516 141.381 278.367 141.547 278.26 141.743C278.157 141.938 278.085 142.15 278.044 142.378C278.004 142.603 277.983 142.834 277.983 143.07V146.066H276.994ZM283.355 146.232C282.798 146.232 282.321 146.094 281.923 145.817C281.525 145.537 281.217 145.159 281 144.684C280.786 144.208 280.679 143.672 280.679 143.075C280.679 142.478 280.786 141.942 281 141.466C281.217 140.991 281.525 140.617 281.923 140.344C282.321 140.068 282.796 139.929 283.349 139.929C283.913 139.929 284.387 140.066 284.77 140.338C285.153 140.611 285.443 140.985 285.638 141.461C285.837 141.936 285.937 142.474 285.937 143.075C285.937 143.668 285.837 144.205 285.638 144.684C285.443 145.159 285.153 145.537 284.77 145.817C284.387 146.094 283.915 146.232 283.355 146.232ZM283.476 145.331C283.878 145.331 284.208 145.235 284.466 145.043C284.724 144.848 284.914 144.581 285.035 144.242C285.161 143.899 285.223 143.51 285.223 143.075C285.223 142.633 285.161 142.244 285.035 141.909C284.914 141.569 284.726 141.306 284.472 141.118C284.217 140.926 283.895 140.83 283.504 140.83C283.099 140.83 282.763 140.93 282.498 141.129C282.236 141.328 282.041 141.597 281.912 141.936C281.787 142.275 281.724 142.655 281.724 143.075C281.724 143.499 281.788 143.882 281.917 144.225C282.046 144.564 282.24 144.833 282.498 145.032C282.76 145.231 283.086 145.331 283.476 145.331ZM285.223 146.066V141.671H285.113V138.105H286.102V146.066H285.223Z" fill="white"/>
<path d="M25.0784 71.0437V62.0965L23.026 63.3507V61.3287L25.0784 60.0972H26.9484V71.0437H25.0784ZM29.5403 71.0285V69.4321L34.2229 65.2588C34.5878 64.9344 34.8412 64.6278 34.9831 64.339C35.125 64.0501 35.1959 63.7714 35.1959 63.5028C35.1959 63.1379 35.1174 62.8136 34.9603 62.5298C34.8032 62.2409 34.5852 62.0129 34.3065 61.8456C34.0329 61.6784 33.7161 61.5948 33.3563 61.5948C32.9762 61.5948 32.6392 61.6834 32.3453 61.8608C32.0564 62.0331 31.8309 62.2637 31.6687 62.5526C31.5066 62.8414 31.4305 63.1531 31.4407 63.4876H29.5555C29.5555 62.7578 29.7176 62.1218 30.042 61.5796C30.3714 61.0373 30.8224 60.6167 31.3951 60.3177C31.9728 60.0187 32.6392 59.8692 33.3943 59.8692C34.0937 59.8692 34.7221 60.0263 35.2795 60.3405C35.837 60.6496 36.2754 61.0804 36.5946 61.6328C36.9139 62.1801 37.0735 62.811 37.0735 63.5256C37.0735 64.0476 37.0026 64.4859 36.8607 64.8407C36.7188 65.1954 36.5059 65.5223 36.2221 65.8213C35.9434 66.1203 35.5963 66.4522 35.1807 66.8171L31.8588 69.759L31.6915 69.3029H37.0735V71.0285H29.5403ZM42.0329 71.2489C41.4856 71.2489 40.9687 71.1425 40.4822 70.9296C39.9957 70.7168 39.5725 70.4152 39.2127 70.025C38.8579 69.6348 38.602 69.1736 38.4449 68.6415L40.2161 68.1626C40.3428 68.5984 40.5734 68.9355 40.9079 69.1736C41.2474 69.4068 41.6199 69.5208 42.0253 69.5157C42.3851 69.5157 42.7069 69.4321 42.9907 69.2649C43.2745 69.0976 43.4975 68.8721 43.6597 68.5883C43.8219 68.2994 43.9029 67.9776 43.9029 67.6229C43.9029 67.0806 43.7281 66.6271 43.3784 66.2622C43.0287 65.8973 42.5777 65.7149 42.0253 65.7149C41.8581 65.7149 41.6934 65.7377 41.5312 65.7833C41.3741 65.8289 41.2221 65.8922 41.0751 65.9733L40.2389 64.529L43.9181 61.3819L44.0778 61.8228H38.8706V60.0972H45.5829V61.8304L42.6259 64.6734L42.6106 64.1337C43.2745 64.1793 43.8396 64.3643 44.3058 64.6886C44.7771 65.013 45.1369 65.4311 45.3853 65.9429C45.6387 66.4548 45.7653 67.0148 45.7653 67.6229C45.7653 68.3121 45.5956 68.9304 45.256 69.4777C44.9216 70.025 44.4705 70.4583 43.9029 70.7776C43.3404 71.0918 42.7171 71.2489 42.0329 71.2489ZM52.2808 71.0437V69.2345H47.4309V67.5241L50.9353 60.0972H53.0258L49.5214 67.5241H52.2808V64.6734H54.1356V67.5241H55.1619V69.2345H54.1356V71.0437H52.2808ZM69.3616 71.2717C68.8041 71.2717 68.2847 71.1577 67.8032 70.9296C67.3218 70.6965 66.9062 70.3772 66.5566 69.9718C66.2119 69.5664 65.9636 69.0951 65.8116 68.5579L67.5752 68.0866C67.6461 68.3805 67.7754 68.6339 67.9629 68.8468C68.1554 69.0596 68.3784 69.2243 68.6318 69.3409C68.8903 69.4574 69.1563 69.5157 69.43 69.5157C69.7847 69.5157 70.1091 69.4296 70.403 69.2573C70.6969 69.085 70.9301 68.8544 71.1024 68.5655C71.2747 68.2716 71.3608 67.9472 71.3608 67.5925C71.3608 67.2377 71.2721 66.9159 71.0948 66.6271C70.9225 66.3331 70.6893 66.1026 70.3954 65.9353C70.1015 65.763 69.7797 65.6769 69.43 65.6769C69.0094 65.6769 68.6597 65.7529 68.381 65.9049C68.1073 66.0569 67.897 66.2191 67.75 66.3914L66.1841 65.8897L66.5185 60.0972H72.4631V61.8152H67.4992L68.1833 61.1691L67.9401 65.198L67.6056 64.7875C67.8894 64.529 68.2188 64.3364 68.5938 64.2097C68.9688 64.083 69.3312 64.0197 69.6808 64.0197C70.365 64.0197 70.9706 64.1768 71.4977 64.491C72.0298 64.8001 72.4453 65.2233 72.7443 65.7605C73.0484 66.2977 73.2004 66.9083 73.2004 67.5925C73.2004 68.2766 73.0231 68.8974 72.6683 69.4549C72.3136 70.0073 71.8448 70.4482 71.262 70.7776C70.6843 71.107 70.0508 71.2717 69.3616 71.2717ZM78.8095 71.2717C78.095 71.2717 77.4514 71.1045 76.8787 70.77C76.3111 70.4305 75.8601 69.9617 75.5256 69.3637C75.1911 68.7657 75.0239 68.079 75.0239 67.3036V63.9741C75.0239 63.143 75.1886 62.4208 75.518 61.8076C75.8525 61.1944 76.3187 60.7206 76.9167 60.3861C77.5198 60.0516 78.2191 59.8844 79.0148 59.8844C79.5672 59.8844 80.0917 59.9781 80.5883 60.1656C81.085 60.3481 81.5259 60.642 81.911 61.0474L80.5883 62.3321C80.3957 62.1041 80.1601 61.9242 79.8814 61.7924C79.6077 61.6606 79.3188 61.5948 79.0148 61.5948C78.5891 61.5948 78.2166 61.6961 77.8973 61.8988C77.5781 62.0965 77.3297 62.3575 77.1524 62.6818C76.9801 63.0061 76.8939 63.3533 76.8939 63.7232V65.54L76.5594 65.1752C76.8736 64.8103 77.2512 64.5265 77.6921 64.3238C78.133 64.116 78.5941 64.0121 79.0756 64.0121C79.7648 64.0121 80.3729 64.1692 80.9 64.4834C81.427 64.7925 81.8426 65.2182 82.1467 65.7605C82.4507 66.2977 82.6028 66.9109 82.6028 67.6001C82.6028 68.2842 82.4279 68.905 82.0782 69.4625C81.7336 70.0149 81.275 70.4558 80.7023 70.7852C80.1297 71.1095 79.4987 71.2717 78.8095 71.2717ZM78.8095 69.5157C79.1643 69.5157 79.4886 69.4321 79.7825 69.2649C80.0765 69.0926 80.3096 68.862 80.4819 68.5731C80.6593 68.2792 80.748 67.9548 80.748 67.6001C80.748 67.2453 80.6618 66.921 80.4895 66.6271C80.3172 66.3331 80.0841 66.1 79.7901 65.9277C79.5013 65.7503 79.1795 65.6617 78.8247 65.6617C78.47 65.6617 78.1456 65.7503 77.8517 65.9277C77.5578 66.1 77.3247 66.3331 77.1524 66.6271C76.9801 66.921 76.8939 67.2453 76.8939 67.6001C76.8939 67.9447 76.9775 68.264 77.1448 68.5579C77.3171 68.8468 77.5476 69.0799 77.8365 69.2573C78.1304 69.4296 78.4548 69.5157 78.8095 69.5157ZM85.0215 71.0437L88.792 61.8304H84.0105V60.0972H90.7532V61.8304L86.998 71.0437H85.0215ZM96.1535 71.2717C95.4288 71.2717 94.7852 71.1247 94.2227 70.8308C93.6601 70.5369 93.2192 70.1289 92.9 69.6069C92.5807 69.085 92.4211 68.487 92.4211 67.8129C92.4211 67.2099 92.5604 66.6499 92.8391 66.133C93.1179 65.6161 93.5258 65.203 94.063 64.8939L94.025 65.4792C93.6044 65.1599 93.2775 64.7925 93.0444 64.377C92.8163 63.9563 92.7023 63.485 92.7023 62.9631C92.7023 62.3347 92.8493 61.7899 93.1432 61.3287C93.4422 60.8675 93.8502 60.5103 94.3671 60.2569C94.884 59.9984 95.4795 59.8692 96.1535 59.8692C96.8275 59.8692 97.423 59.9984 97.9399 60.2569C98.4619 60.5103 98.8698 60.8675 99.1637 61.3287C99.4627 61.7899 99.6122 62.3347 99.6122 62.9631C99.6122 63.485 99.5008 63.9538 99.2778 64.3694C99.0599 64.7849 98.7279 65.1599 98.282 65.4944L98.2744 64.9015C98.8014 65.2005 99.2043 65.611 99.483 66.133C99.7668 66.6499 99.9087 67.2099 99.9087 67.8129C99.9087 68.487 99.7465 69.085 99.4222 69.6069C99.1029 70.1289 98.6595 70.5369 98.0919 70.8308C97.5294 71.1247 96.8832 71.2717 96.1535 71.2717ZM96.1535 69.5461C96.6907 69.5461 97.1265 69.3992 97.461 69.1052C97.8005 68.8113 97.9703 68.3805 97.9703 67.8129C97.9703 67.2453 97.803 66.8146 97.4686 66.5207C97.1341 66.2217 96.6957 66.0722 96.1535 66.0722C95.6163 66.0722 95.183 66.2217 94.8536 66.5207C94.5242 66.8146 94.3595 67.2453 94.3595 67.8129C94.3595 68.3805 94.5242 68.8113 94.8536 69.1052C95.183 69.3992 95.6163 69.5461 96.1535 69.5461ZM96.1535 64.3314C96.6045 64.3314 96.9694 64.2199 97.2481 63.9969C97.5319 63.7688 97.6738 63.4242 97.6738 62.9631C97.6738 62.5019 97.5319 62.1598 97.2481 61.9368C96.9694 61.7088 96.6045 61.5948 96.1535 61.5948C95.7075 61.5948 95.3426 61.7088 95.0588 61.9368C94.7801 62.1598 94.6407 62.5019 94.6407 62.9631C94.6407 63.4242 94.7801 63.7688 95.0588 63.9969C95.3426 64.2199 95.7075 64.3314 96.1535 64.3314ZM114.548 59.8844C115.262 59.8844 115.906 60.0542 116.479 60.3937C117.051 60.7282 117.502 61.1944 117.832 61.7924C118.166 62.3853 118.334 63.0695 118.334 63.8449V67.182C118.334 68.008 118.166 68.7302 117.832 69.3485C117.502 69.9617 117.039 70.4355 116.441 70.77C115.843 71.1045 115.143 71.2717 114.343 71.2717C113.79 71.2717 113.268 71.178 112.777 70.9904C112.285 70.7979 111.844 70.5039 111.454 70.1086L112.769 68.824C112.967 69.052 113.202 69.2319 113.476 69.3637C113.755 69.4904 114.044 69.5537 114.343 69.5537C114.768 69.5537 115.141 69.4549 115.46 69.2573C115.779 69.0545 116.028 68.7936 116.205 68.4743C116.382 68.1499 116.471 67.8028 116.471 67.4329V65.6161L116.798 65.9809C116.489 66.3458 116.114 66.6321 115.673 66.8399C115.232 67.0426 114.768 67.144 114.282 67.144C113.598 67.144 112.99 66.9869 112.457 66.6727C111.93 66.3585 111.515 65.9328 111.211 65.3956C110.912 64.8533 110.762 64.2401 110.762 63.556C110.762 62.8718 110.935 62.2536 111.279 61.7012C111.624 61.1437 112.082 60.7028 112.655 60.3785C113.233 60.0491 113.864 59.8844 114.548 59.8844ZM114.548 61.6328C114.193 61.6328 113.869 61.7189 113.575 61.8912C113.281 62.0635 113.048 62.2966 112.876 62.5906C112.703 62.8794 112.617 63.2012 112.617 63.556C112.617 63.9107 112.701 64.2351 112.868 64.529C113.04 64.8229 113.271 65.0561 113.56 65.2284C113.854 65.4007 114.178 65.4868 114.533 65.4868C114.887 65.4868 115.212 65.4007 115.506 65.2284C115.8 65.0561 116.033 64.8229 116.205 64.529C116.382 64.2351 116.471 63.9107 116.471 63.556C116.471 63.2114 116.385 62.8946 116.213 62.6058C116.04 62.3119 115.807 62.0762 115.513 61.8988C115.224 61.7215 114.903 61.6328 114.548 61.6328ZM124.394 71.2717C123.618 71.2717 122.934 71.107 122.341 70.7776C121.748 70.4431 121.284 69.9794 120.95 69.3865C120.621 68.7936 120.456 68.1094 120.456 67.334V63.8068C120.456 63.0315 120.621 62.3473 120.95 61.7544C121.284 61.1615 121.748 60.7003 122.341 60.3709C122.934 60.0364 123.618 59.8692 124.394 59.8692C125.169 59.8692 125.851 60.0364 126.438 60.3709C127.031 60.7003 127.495 61.1615 127.829 61.7544C128.164 62.3473 128.331 63.0315 128.331 63.8068V67.334C128.331 68.1094 128.164 68.7936 127.829 69.3865C127.495 69.9794 127.031 70.4431 126.438 70.7776C125.851 71.107 125.169 71.2717 124.394 71.2717ZM124.394 69.5309C124.779 69.5309 125.128 69.4397 125.443 69.2573C125.757 69.0698 126.005 68.8214 126.188 68.5123C126.37 68.1981 126.461 67.8484 126.461 67.4633V63.67C126.461 63.2798 126.37 62.9301 126.188 62.621C126.005 62.3068 125.757 62.0585 125.443 61.876C125.128 61.6885 124.779 61.5948 124.394 61.5948C124.008 61.5948 123.659 61.6885 123.344 61.876C123.03 62.0585 122.782 62.3068 122.6 62.621C122.417 62.9301 122.326 63.2798 122.326 63.67V67.4633C122.326 67.8484 122.417 68.1981 122.6 68.5123C122.782 68.8214 123.03 69.0698 123.344 69.2573C123.659 69.4397 124.008 69.5309 124.394 69.5309ZM132.363 71.0437V62.0965L130.311 63.3507V61.3287L132.363 60.0972H134.233V71.0437H132.363ZM136.825 71.0285V69.4321L141.508 65.2588C141.873 64.9344 142.126 64.6278 142.268 64.339C142.41 64.0501 142.481 63.7714 142.481 63.5028C142.481 63.1379 142.402 62.8136 142.245 62.5298C142.088 62.2409 141.87 62.0129 141.591 61.8456C141.318 61.6784 141.001 61.5948 140.641 61.5948C140.261 61.5948 139.924 61.6834 139.63 61.8608C139.341 62.0331 139.116 62.2637 138.953 62.5526C138.791 62.8414 138.715 63.1531 138.725 63.4876H136.84C136.84 62.7578 137.002 62.1218 137.327 61.5796C137.656 61.0373 138.107 60.6167 138.68 60.3177C139.258 60.0187 139.924 59.8692 140.679 59.8692C141.378 59.8692 142.007 60.0263 142.564 60.3405C143.122 60.6496 143.56 61.0804 143.879 61.6328C144.199 62.1801 144.358 62.811 144.358 63.5256C144.358 64.0476 144.287 64.4859 144.145 64.8407C144.004 65.1954 143.791 65.5223 143.507 65.8213C143.228 66.1203 142.881 66.4522 142.465 66.8171L139.144 69.759L138.976 69.3029H144.358V71.0285H136.825ZM158.449 71.2489C157.901 71.2489 157.384 71.1425 156.898 70.9296C156.411 70.7168 155.988 70.4152 155.628 70.025C155.274 69.6348 155.018 69.1736 154.861 68.6415L156.632 68.1626C156.758 68.5984 156.989 68.9355 157.324 69.1736C157.663 69.4068 158.036 69.5208 158.441 69.5157C158.801 69.5157 159.123 69.4321 159.406 69.2649C159.69 69.0976 159.913 68.8721 160.075 68.5883C160.238 68.2994 160.319 67.9776 160.319 67.6229C160.319 67.0806 160.144 66.6271 159.794 66.2622C159.444 65.8973 158.993 65.7149 158.441 65.7149C158.274 65.7149 158.109 65.7377 157.947 65.7833C157.79 65.8289 157.638 65.8922 157.491 65.9733L156.655 64.529L160.334 61.3819L160.493 61.8228H155.286V60.0972H161.999V61.8304L159.042 64.6734L159.026 64.1337C159.69 64.1793 160.255 64.3643 160.721 64.6886C161.193 65.013 161.553 65.4311 161.801 65.9429C162.054 66.4548 162.181 67.0148 162.181 67.6229C162.181 68.3121 162.011 68.9304 161.672 69.4777C161.337 70.025 160.886 70.4583 160.319 70.7776C159.756 71.0918 159.133 71.2489 158.449 71.2489ZM168.697 71.0437V69.2345H163.847V67.5241L167.351 60.0972H169.441L165.937 67.5241H168.697V64.6734H170.551V67.5241H171.578V69.2345H170.551V71.0437H168.697ZM176.646 71.2717C176.089 71.2717 175.569 71.1577 175.088 70.9296C174.607 70.6965 174.191 70.3772 173.841 69.9718C173.497 69.5664 173.248 69.0951 173.096 68.5579L174.86 68.0866C174.931 68.3805 175.06 68.6339 175.248 68.8468C175.44 69.0596 175.663 69.2243 175.917 69.3409C176.175 69.4574 176.441 69.5157 176.715 69.5157C177.069 69.5157 177.394 69.4296 177.688 69.2573C177.982 69.085 178.215 68.8544 178.387 68.5655C178.559 68.2716 178.646 67.9472 178.646 67.5925C178.646 67.2377 178.557 66.9159 178.379 66.6271C178.207 66.3331 177.974 66.1026 177.68 65.9353C177.386 65.763 177.064 65.6769 176.715 65.6769C176.294 65.6769 175.944 65.7529 175.666 65.9049C175.392 66.0569 175.182 66.2191 175.035 66.3914L173.469 65.8897L173.803 60.0972H179.748V61.8152H174.784L175.468 61.1691L175.225 65.198L174.89 64.7875C175.174 64.529 175.504 64.3364 175.879 64.2097C176.254 64.083 176.616 64.0197 176.966 64.0197C177.65 64.0197 178.255 64.1768 178.782 64.491C179.314 64.8001 179.73 65.2233 180.029 65.7605C180.333 66.2977 180.485 66.9083 180.485 67.5925C180.485 68.2766 180.308 68.8974 179.953 69.4549C179.598 70.0073 179.13 70.4482 178.547 70.7776C177.969 71.107 177.336 71.2717 176.646 71.2717ZM186.094 71.2717C185.38 71.2717 184.736 71.1045 184.163 70.77C183.596 70.4305 183.145 69.9617 182.81 69.3637C182.476 68.7657 182.309 68.079 182.309 67.3036V63.9741C182.309 63.143 182.473 62.4208 182.803 61.8076C183.137 61.1944 183.603 60.7206 184.201 60.3861C184.805 60.0516 185.504 59.8844 186.3 59.8844C186.852 59.8844 187.376 59.9781 187.873 60.1656C188.37 60.3481 188.811 60.642 189.196 61.0474L187.873 62.3321C187.68 62.1041 187.445 61.9242 187.166 61.7924C186.892 61.6606 186.604 61.5948 186.3 61.5948C185.874 61.5948 185.501 61.6961 185.182 61.8988C184.863 62.0965 184.614 62.3575 184.437 62.6818C184.265 63.0061 184.179 63.3533 184.179 63.7232V65.54L183.844 65.1752C184.158 64.8103 184.536 64.5265 184.977 64.3238C185.418 64.116 185.879 64.0121 186.36 64.0121C187.05 64.0121 187.658 64.1692 188.185 64.4834C188.712 64.7925 189.127 65.2182 189.431 65.7605C189.735 66.2977 189.888 66.9109 189.888 67.6001C189.888 68.2842 189.713 68.905 189.363 69.4625C189.018 70.0149 188.56 70.4558 187.987 70.7852C187.414 71.1095 186.783 71.2717 186.094 71.2717ZM186.094 69.5157C186.449 69.5157 186.773 69.4321 187.067 69.2649C187.361 69.0926 187.594 68.862 187.767 68.5731C187.944 68.2792 188.033 67.9548 188.033 67.6001C188.033 67.2453 187.947 66.921 187.774 66.6271C187.602 66.3331 187.369 66.1 187.075 65.9277C186.786 65.7503 186.464 65.6617 186.109 65.6617C185.755 65.6617 185.43 65.7503 185.136 65.9277C184.843 66.1 184.609 66.3331 184.437 66.6271C184.265 66.921 184.179 67.2453 184.179 67.6001C184.179 67.9447 184.262 68.264 184.429 68.5579C184.602 68.8468 184.832 69.0799 185.121 69.2573C185.415 69.4296 185.74 69.5157 186.094 69.5157Z" fill="white"/>
<path d="M22.5975 88.5722V83.5965H25.7764V84.2772H23.3197V85.6731H25.3618V86.3538H23.3197V87.8915H25.7764V88.5722H22.5975ZM26.1916 88.5722L27.5875 86.6856L26.2227 84.8404H27.0796L28.0091 86.1223L28.9282 84.8404H29.7851L28.4203 86.6856L29.8197 88.5722H28.9593L28.0091 87.2488L27.052 88.5722H26.1916ZM32.1238 88.6758C31.7668 88.6758 31.4673 88.5894 31.2254 88.4167C30.9836 88.2416 30.8004 88.0055 30.676 87.7083C30.5516 87.4112 30.4894 87.076 30.4894 86.7028C30.4894 86.3297 30.5505 85.9945 30.6726 85.6973C30.797 85.4002 30.9789 85.1664 31.2185 84.9959C31.4604 84.8231 31.7575 84.7368 32.11 84.7368C32.4601 84.7368 32.7619 84.8231 33.0153 84.9959C33.271 85.1664 33.4679 85.4002 33.6061 85.6973C33.7444 85.9922 33.8135 86.3274 33.8135 86.7028C33.8135 87.076 33.7444 87.4123 33.6061 87.7118C33.4702 88.0089 33.2756 88.2439 33.0222 88.4167C32.7711 88.5894 32.4716 88.6758 32.1238 88.6758ZM30.3685 90.2307V84.8404H31.0112V87.5252H31.0941V90.2307H30.3685ZM32.0236 88.0228C32.254 88.0228 32.444 87.964 32.5937 87.8465C32.7458 87.7291 32.8586 87.5713 32.9324 87.3732C33.0084 87.1728 33.0464 86.9493 33.0464 86.7028C33.0464 86.4587 33.0084 86.2375 32.9324 86.0394C32.8586 85.8413 32.7446 85.6835 32.5903 85.566C32.4359 85.4486 32.239 85.3898 31.9994 85.3898C31.7737 85.3898 31.5871 85.4451 31.4397 85.5557C31.2945 85.6662 31.1863 85.8206 31.1149 86.0187C31.0458 86.2168 31.0112 86.4448 31.0112 86.7028C31.0112 86.9608 31.0458 87.1889 31.1149 87.387C31.184 87.5851 31.2934 87.7406 31.4431 87.8535C31.5928 87.9663 31.7863 88.0228 32.0236 88.0228ZM34.6455 84.2288V83.5274H35.3676V84.2288H34.6455ZM34.6455 88.5722V84.8404H35.3676V88.5722H34.6455ZM36.4053 88.5722V84.8404H37.048V85.7457L36.9581 85.6282C37.0042 85.5084 37.0641 85.399 37.1378 85.3C37.2115 85.1986 37.2967 85.1157 37.3935 85.0512C37.4879 84.9821 37.5927 84.9291 37.7079 84.8922C37.8254 84.8531 37.9452 84.8301 38.0673 84.8231C38.1894 84.8139 38.3068 84.8197 38.4197 84.8404V85.5177C38.2976 85.4854 38.1617 85.4762 38.012 85.49C37.8646 85.5038 37.7286 85.5511 37.6043 85.6317C37.4868 85.7077 37.3935 85.7998 37.3244 85.9081C37.2576 86.0164 37.2092 86.1373 37.1793 86.2709C37.1493 86.4022 37.1343 86.5416 37.1343 86.689V88.5722H36.4053ZM39.4877 90.2307L40.2099 88.2646L40.2203 88.8451L38.5928 84.8404H39.3461L40.5623 87.9329H40.3412L41.5022 84.8404H42.2347L40.1753 90.2307H39.4877ZM45.6418 88.6758C45.294 88.6758 44.9934 88.5894 44.74 88.4167C44.4889 88.2439 44.2942 88.0089 44.156 87.7118C44.0201 87.4123 43.9522 87.076 43.9522 86.7028C43.9522 86.3274 44.0213 85.9922 44.1595 85.6973C44.2977 85.4002 44.4935 85.1664 44.7469 84.9959C45.0026 84.8231 45.3055 84.7368 45.6556 84.7368C46.0081 84.7368 46.3041 84.8231 46.5436 84.9959C46.7855 85.1664 46.9675 85.4002 47.0896 85.6973C47.214 85.9945 47.2762 86.3297 47.2762 86.7028C47.2762 87.076 47.214 87.4112 47.0896 87.7083C46.9652 88.0055 46.7821 88.2416 46.5402 88.4167C46.2983 88.5894 45.9988 88.6758 45.6418 88.6758ZM45.742 88.0228C45.9793 88.0228 46.1728 87.9663 46.3225 87.8535C46.4722 87.7406 46.5816 87.5851 46.6507 87.387C46.7199 87.1889 46.7544 86.9608 46.7544 86.7028C46.7544 86.4448 46.7187 86.2168 46.6473 86.0187C46.5782 85.8206 46.4699 85.6662 46.3225 85.5557C46.1774 85.4451 45.9919 85.3898 45.7662 85.3898C45.5266 85.3898 45.3297 85.4486 45.1753 85.566C45.021 85.6835 44.9058 85.8413 44.8298 86.0394C44.7561 86.2375 44.7192 86.4587 44.7192 86.7028C44.7192 86.9493 44.7561 87.1728 44.8298 87.3732C44.9058 87.5713 45.0187 87.7291 45.1684 87.8465C45.3205 87.964 45.5116 88.0228 45.742 88.0228ZM46.7544 88.5722V85.8874H46.6715V83.5965H47.3971V88.5722H46.7544ZM49.4178 88.6758C49.1413 88.6758 48.9098 88.6251 48.7232 88.5238C48.5366 88.4201 48.395 88.2842 48.2982 88.1161C48.2038 87.9456 48.1566 87.759 48.1566 87.5563C48.1566 87.3674 48.19 87.2015 48.2568 87.0587C48.3236 86.9159 48.4226 86.795 48.5539 86.6959C48.6852 86.5946 48.8465 86.5128 49.0377 86.4506C49.2035 86.4022 49.3913 86.3596 49.6009 86.3227C49.8105 86.2859 50.0305 86.2513 50.2608 86.2191C50.4935 86.1868 50.7239 86.1546 50.9519 86.1223L50.6893 86.2675C50.6939 85.9749 50.6317 85.7584 50.5027 85.6179C50.376 85.475 50.1572 85.4036 49.8462 85.4036C49.6504 85.4036 49.4707 85.4497 49.3072 85.5418C49.1436 85.6317 49.0296 85.7814 48.9651 85.991L48.2913 85.7837C48.3835 85.4635 48.5585 85.209 48.8165 85.0201C49.0768 84.8312 49.4224 84.7368 49.8531 84.7368C50.1871 84.7368 50.4774 84.7943 50.7239 84.9095C50.9726 85.0224 51.1546 85.2021 51.2698 85.4486C51.3297 85.5706 51.3665 85.6996 51.3804 85.8355C51.3942 85.9715 51.4011 86.1177 51.4011 86.2744V88.5722H50.7619V87.7187L50.8863 87.8293C50.7319 88.1149 50.535 88.328 50.2954 88.4685C50.0581 88.6067 49.7656 88.6758 49.4178 88.6758ZM49.5456 88.085C49.7506 88.085 49.9268 88.0493 50.0743 87.9778C50.2217 87.9041 50.3403 87.8108 50.4302 87.698C50.52 87.5851 50.5787 87.4676 50.6064 87.3455C50.6455 87.2349 50.6674 87.1106 50.672 86.9723C50.6789 86.8341 50.6824 86.7236 50.6824 86.6406L50.9174 86.727C50.6893 86.7616 50.482 86.7927 50.2954 86.8203C50.1088 86.848 49.9395 86.8756 49.7875 86.9032C49.6377 86.9286 49.5041 86.9597 49.3867 86.9965C49.2876 87.0311 49.1989 87.0725 49.1206 87.1209C49.0446 87.1693 48.9835 87.228 48.9375 87.2971C48.8937 87.3663 48.8718 87.4503 48.8718 87.5494C48.8718 87.6461 48.896 87.736 48.9444 87.8189C48.9927 87.8995 49.0665 87.964 49.1655 88.0124C49.2646 88.0608 49.3913 88.085 49.5456 88.085ZM54.4337 88.5722C54.1988 88.6182 53.9684 88.6378 53.7427 88.6309C53.5169 88.624 53.3154 88.5802 53.138 88.4996C52.9606 88.419 52.827 88.2923 52.7372 88.1195C52.6566 87.9652 52.6128 87.8085 52.6059 87.6496C52.6013 87.4883 52.599 87.3064 52.599 87.1036V83.8038H53.3246V87.0691C53.3246 87.2188 53.3257 87.349 53.328 87.4595C53.3326 87.5701 53.3568 87.6634 53.4006 87.7394C53.4835 87.8822 53.6148 87.964 53.7945 87.9848C53.9765 88.0032 54.1896 87.9951 54.4337 87.9606V88.5722ZM51.8837 85.4209V84.8404H54.4337V85.4209H51.8837ZM56.7069 88.6758C56.336 88.6758 56.0101 88.5952 55.729 88.4339C55.4503 88.2704 55.2326 88.0435 55.076 87.7532C54.9217 87.4607 54.8445 87.1221 54.8445 86.7374C54.8445 86.3297 54.9205 85.9761 55.0725 85.6766C55.2269 85.3771 55.4411 85.1456 55.7152 84.9821C55.9893 84.8185 56.3084 84.7368 56.6723 84.7368C57.0524 84.7368 57.3761 84.8254 57.6433 85.0028C57.9105 85.1779 58.1098 85.4278 58.2411 85.7526C58.3747 86.0774 58.4276 86.4633 58.4 86.9101H57.6778V86.6475C57.6732 86.2145 57.5903 85.8943 57.4291 85.687C57.2701 85.4797 57.0271 85.376 56.7 85.376C56.3383 85.376 56.0665 85.49 55.8845 85.7181C55.7026 85.9461 55.6116 86.2755 55.6116 86.7063C55.6116 87.1163 55.7026 87.4342 55.8845 87.66C56.0665 87.8834 56.3291 87.9951 56.6723 87.9951C56.8981 87.9951 57.0927 87.9444 57.2563 87.8431C57.4221 87.7394 57.5511 87.592 57.6433 87.4008L58.3516 87.6254C58.2065 87.9594 57.9865 88.2186 57.6917 88.4028C57.3968 88.5848 57.0686 88.6758 56.7069 88.6758ZM55.3766 86.9101V86.3469H58.0406V86.9101H55.3766Z" fill="white"/>
<path d="M24.2754 103.954V97.2648L22.7772 98.177V96.8889L24.2754 95.9932H25.453V103.954H24.2754ZM27.3313 103.949L27.3368 102.92L30.8032 99.8134C31.0833 99.5665 31.2731 99.3306 31.3726 99.1058C31.4758 98.881 31.5274 98.6561 31.5274 98.4313C31.5274 98.1475 31.4648 97.8932 31.3395 97.6684C31.2141 97.4399 31.0409 97.2593 30.8198 97.1266C30.5986 96.9939 30.3443 96.9276 30.0568 96.9276C29.762 96.9276 29.4985 96.9976 29.2663 97.1376C29.0378 97.274 28.859 97.4565 28.73 97.685C28.601 97.9135 28.5383 98.1604 28.542 98.4258H27.3589C27.3589 97.9098 27.475 97.4583 27.7072 97.0713C27.9431 96.6806 28.2656 96.3766 28.6747 96.1591C29.0838 95.938 29.5519 95.8274 30.079 95.8274C30.5802 95.8274 31.0299 95.9416 31.4279 96.1702C31.826 96.395 32.1392 96.7046 32.3678 97.0989C32.6 97.4933 32.716 97.943 32.716 98.4479C32.716 98.8128 32.6681 99.1224 32.5723 99.3767C32.4765 99.631 32.3327 99.8669 32.1411 100.084C31.9494 100.302 31.7099 100.538 31.4224 100.792L28.7466 103.18L28.6194 102.849H32.716V103.949H27.3313ZM36.0543 95.9932H37.2208L35.0979 103.954H33.9314L36.0543 95.9932ZM40.8914 104.104C40.497 104.104 40.1266 104.03 39.7802 103.882C39.4337 103.731 39.1333 103.518 38.879 103.241C38.6284 102.965 38.446 102.638 38.3317 102.263L39.4485 101.953C39.5554 102.296 39.7415 102.559 40.0068 102.744C40.2722 102.924 40.5671 103.013 40.8914 103.009C41.1826 103.005 41.4387 102.937 41.6599 102.804C41.881 102.672 42.0542 102.493 42.1795 102.268C42.3049 102.04 42.3675 101.778 42.3675 101.483C42.3675 101.041 42.2293 100.676 41.9529 100.388C41.6801 100.101 41.3226 99.9572 40.8803 99.9572C40.755 99.9572 40.626 99.9756 40.4934 100.012C40.3644 100.049 40.2427 100.097 40.1285 100.156L39.5867 99.244L42.3952 96.7617L42.5168 97.0934H38.6468V95.9932H43.4345V97.0934L41.1015 99.338L41.0904 98.962C41.5917 98.962 42.0266 99.0745 42.3952 99.2993C42.7637 99.5204 43.0475 99.8226 43.2465 100.206C43.4493 100.586 43.5506 101.011 43.5506 101.483C43.5506 101.992 43.4308 102.443 43.1913 102.838C42.9554 103.232 42.6366 103.541 42.2348 103.766C41.8368 103.991 41.389 104.104 40.8914 104.104ZM48.3633 103.954V102.567H44.7698V101.472L47.3572 95.9932H48.6785L46.0911 101.472H48.3633V99.3159H49.5354V101.472H50.326V102.567H49.5354V103.954H48.3633Z" fill="white"/>
<path d="M110.74 88.6758C110.242 88.6758 109.818 88.5675 109.468 88.351C109.118 88.1322 108.85 87.8281 108.663 87.4388C108.479 87.0495 108.387 86.598 108.387 86.0843C108.387 85.5706 108.479 85.1191 108.663 84.7298C108.85 84.3405 109.118 84.0376 109.468 83.8211C109.818 83.6023 110.242 83.4928 110.74 83.4928C111.313 83.4928 111.788 83.638 112.163 83.9282C112.541 84.2185 112.804 84.6089 112.951 85.0996L112.218 85.2965C112.122 84.9487 111.949 84.6757 111.7 84.4776C111.454 84.2795 111.133 84.1805 110.74 84.1805C110.387 84.1805 110.093 84.2599 109.858 84.4189C109.624 84.5778 109.446 84.8001 109.326 85.0857C109.209 85.3714 109.15 85.7042 109.15 86.0843C109.148 86.4644 109.205 86.7973 109.323 87.0829C109.443 87.3686 109.62 87.5908 109.855 87.7498C110.092 87.9087 110.387 87.9882 110.74 87.9882C111.133 87.9882 111.454 87.8892 111.7 87.6911C111.949 87.4906 112.122 87.2177 112.218 86.8721L112.951 87.0691C112.804 87.5597 112.541 87.9502 112.163 88.2404C111.788 88.5307 111.313 88.6758 110.74 88.6758ZM114.744 88.5722L113.127 83.5965H113.877L115.255 87.8431L116.651 83.5965H117.401L115.784 88.5722H114.744ZM119.09 88.5722L117.473 83.5965H118.223L119.601 87.8431L120.997 83.5965H121.747L120.13 88.5722H119.09Z" fill="white"/>
<path d="M110.341 103.954V97.2648L108.843 98.177V96.8889L110.341 95.9932H111.518V103.954H110.341ZM113.397 103.949L113.402 102.92L116.869 99.8134C117.149 99.5665 117.339 99.3306 117.438 99.1058C117.541 98.881 117.593 98.6561 117.593 98.4313C117.593 98.1475 117.53 97.8932 117.405 97.6684C117.28 97.4399 117.106 97.2593 116.885 97.1266C116.664 96.9939 116.41 96.9276 116.122 96.9276C115.827 96.9276 115.564 96.9976 115.332 97.1376C115.103 97.274 114.924 97.4565 114.795 97.685C114.666 97.9135 114.604 98.1604 114.607 98.4258H113.424C113.424 97.9098 113.54 97.4583 113.773 97.0713C114.009 96.6806 114.331 96.3766 114.74 96.1591C115.149 95.938 115.617 95.8274 116.144 95.8274C116.646 95.8274 117.095 95.9416 117.493 96.1702C117.891 96.395 118.205 96.7046 118.433 97.0989C118.665 97.4933 118.781 97.943 118.781 98.4479C118.781 98.8128 118.734 99.1224 118.638 99.3767C118.542 99.631 118.398 99.8669 118.207 100.084C118.015 100.302 117.775 100.538 117.488 100.792L114.812 103.18L114.685 102.849H118.781V103.949H113.397ZM122.335 104.104C121.941 104.104 121.571 104.03 121.224 103.882C120.878 103.731 120.577 103.518 120.323 103.241C120.072 102.965 119.89 102.638 119.776 102.263L120.892 101.953C120.999 102.296 121.185 102.559 121.451 102.744C121.716 102.924 122.011 103.013 122.335 103.009C122.627 103.005 122.883 102.937 123.104 102.804C123.325 102.672 123.498 102.493 123.623 102.268C123.749 102.04 123.811 101.778 123.811 101.483C123.811 101.041 123.673 100.676 123.397 100.388C123.124 100.101 122.767 99.9572 122.324 99.9572C122.199 99.9572 122.07 99.9756 121.937 100.012C121.808 100.049 121.687 100.097 121.572 100.156L121.031 99.244L123.839 96.7617L123.961 97.0934H120.091V95.9932H124.878V97.0934L122.545 99.338L122.534 98.962C123.036 98.962 123.471 99.0745 123.839 99.2993C124.208 99.5204 124.491 99.8226 124.69 100.206C124.893 100.586 124.995 101.011 124.995 101.483C124.995 101.992 124.875 102.443 124.635 102.838C124.399 103.232 124.081 103.541 123.679 103.766C123.281 103.991 122.833 104.104 122.335 104.104Z" fill="white"/>
<path d="M25.3673 128.711C24.5311 128.711 23.8343 128.493 23.2768 128.057C22.7244 127.621 22.3368 127.033 22.1138 126.293L23.923 125.86C23.9787 126.169 24.1409 126.435 24.4095 126.658C24.6781 126.881 24.9745 126.993 25.2989 126.993C25.5117 126.993 25.7372 126.937 25.9754 126.826C26.2136 126.709 26.391 126.524 26.5075 126.271C26.5785 126.109 26.619 125.916 26.6292 125.693C26.6444 125.465 26.652 125.201 26.652 124.902V117.536H28.5068V124.902C28.5068 125.242 28.5043 125.541 28.4992 125.799C28.4992 126.053 28.4738 126.293 28.4232 126.522C28.3776 126.745 28.2838 126.975 28.1419 127.213C27.8429 127.73 27.4527 128.11 26.9712 128.354C26.4898 128.592 25.9552 128.711 25.3673 128.711ZM33.0902 128.711C32.4973 128.711 31.9956 128.599 31.5851 128.376C31.1746 128.148 30.863 127.847 30.6501 127.472C30.4423 127.097 30.3384 126.684 30.3384 126.233C30.3384 125.837 30.4043 125.483 30.5361 125.168C30.6678 124.849 30.8706 124.576 31.1442 124.347C31.4179 124.114 31.7726 123.924 32.2085 123.777C32.5379 123.671 32.923 123.575 33.3639 123.488C33.8099 123.402 34.2913 123.324 34.8082 123.253C35.3302 123.177 35.875 123.096 36.4426 123.01L35.7888 123.382C35.7939 122.814 35.6672 122.396 35.4088 122.128C35.1503 121.859 34.7145 121.725 34.1013 121.725C33.7313 121.725 33.374 121.811 33.0294 121.983C32.6848 122.156 32.4441 122.452 32.3073 122.873L30.6349 122.348C30.8376 121.654 31.2228 121.096 31.7904 120.676C32.363 120.255 33.1333 120.045 34.1013 120.045C34.831 120.045 35.4721 120.164 36.0245 120.402C36.582 120.64 36.995 121.031 37.2636 121.573C37.4105 121.862 37.4992 122.158 37.5296 122.462C37.56 122.761 37.5752 123.088 37.5752 123.443V128.483H35.9713V126.704L36.2373 126.993C35.8674 127.586 35.4341 128.022 34.9375 128.3C34.4459 128.574 33.8301 128.711 33.0902 128.711ZM33.4551 127.251C33.8707 127.251 34.2254 127.178 34.5194 127.031C34.8133 126.884 35.0464 126.704 35.2187 126.491C35.3961 126.278 35.5152 126.078 35.576 125.891C35.6723 125.657 35.7255 125.391 35.7356 125.092C35.7508 124.788 35.7584 124.543 35.7584 124.355L36.321 124.522C35.7686 124.608 35.2947 124.684 34.8995 124.75C34.5042 124.816 34.1646 124.88 33.8808 124.94C33.597 124.996 33.3462 125.059 33.1283 125.13C32.9154 125.206 32.7355 125.295 32.5885 125.396C32.4416 125.498 32.3275 125.614 32.2465 125.746C32.1704 125.878 32.1324 126.033 32.1324 126.21C32.1324 126.413 32.1831 126.592 32.2845 126.75C32.3858 126.902 32.5328 127.023 32.7254 127.114C32.923 127.206 33.1663 127.251 33.4551 127.251ZM45.2328 128.483V124.53C45.2328 124.271 45.215 123.985 45.1795 123.671C45.1441 123.357 45.0605 123.055 44.9287 122.766C44.802 122.472 44.6094 122.232 44.351 122.044C44.0976 121.857 43.753 121.763 43.3171 121.763C43.084 121.763 42.8534 121.801 42.6254 121.877C42.3973 121.953 42.1895 122.085 42.002 122.272C41.8196 122.455 41.6726 122.708 41.5611 123.032C41.4496 123.352 41.3939 123.762 41.3939 124.264L40.3069 123.8C40.3069 123.101 40.4412 122.467 40.7098 121.9C40.9834 121.332 41.3838 120.881 41.9108 120.547C42.4379 120.207 43.0865 120.037 43.8568 120.037C44.465 120.037 44.9667 120.139 45.362 120.341C45.7573 120.544 46.0715 120.803 46.3046 121.117C46.5377 121.431 46.71 121.765 46.8215 122.12C46.933 122.475 47.0039 122.812 47.0344 123.131C47.0698 123.445 47.0876 123.701 47.0876 123.899V128.483H45.2328ZM39.5391 128.483V120.273H41.1735V122.82H41.3939V128.483H39.5391ZM52.6701 128.711C51.8389 128.711 51.1092 128.531 50.4808 128.171C49.8524 127.811 49.3608 127.312 49.006 126.674C48.6564 126.035 48.4815 125.3 48.4815 124.469C48.4815 123.572 48.6538 122.794 48.9984 122.135C49.343 121.471 49.822 120.957 50.4352 120.592C51.0484 120.227 51.7579 120.045 52.5636 120.045C53.415 120.045 54.1372 120.245 54.7301 120.645C55.3281 121.041 55.7715 121.601 56.0604 122.325C56.3493 123.05 56.4582 123.904 56.3873 124.887H54.5705V124.218C54.5654 123.326 54.4083 122.675 54.0992 122.265C53.79 121.854 53.3035 121.649 52.6396 121.649C51.8896 121.649 51.3322 121.882 50.9673 122.348C50.6024 122.809 50.42 123.486 50.42 124.378C50.42 125.209 50.6024 125.853 50.9673 126.309C51.3322 126.765 51.8643 126.993 52.5636 126.993C53.0147 126.993 53.4024 126.894 53.7267 126.696C54.0561 126.494 54.3095 126.202 54.4869 125.822L56.2961 126.37C55.9819 127.109 55.4953 127.685 54.8365 128.095C54.1828 128.506 53.4606 128.711 52.6701 128.711ZM49.8422 124.887V123.504H55.4903V124.887H49.8422ZM62.8953 128.483C62.353 128.584 61.8209 128.627 61.2989 128.612C60.782 128.602 60.3183 128.508 59.9078 128.331C59.4973 128.148 59.1856 127.862 58.9728 127.472C58.7853 127.117 58.6865 126.755 58.6763 126.385C58.6662 126.015 58.6611 125.597 58.6611 125.13V117.992H60.4855V125.024C60.4855 125.353 60.4881 125.642 60.4931 125.891C60.5033 126.139 60.5565 126.342 60.6528 126.499C60.8352 126.803 61.1266 126.973 61.527 127.008C61.9273 127.044 62.3834 127.023 62.8953 126.947V128.483ZM57.1712 121.71V120.273H62.8953V121.71H57.1712ZM70.7479 128.483V117.536H72.3975L76.1831 125.29L79.9688 117.536H81.6183V128.483H79.908V121.466L76.548 128.483H75.8183L72.4659 121.466V128.483H70.7479ZM89.8412 128.483V117.536H93.3304C93.4216 117.536 93.6015 117.539 93.8701 117.544C94.1438 117.549 94.4073 117.567 94.6607 117.597C95.5273 117.709 96.2596 118.018 96.8576 118.525C97.4607 119.026 97.9168 119.667 98.2259 120.448C98.535 121.228 98.6896 122.082 98.6896 123.01C98.6896 123.937 98.535 124.791 98.2259 125.571C97.9168 126.352 97.4607 126.995 96.8576 127.502C96.2596 128.004 95.5273 128.31 94.6607 128.422C94.4124 128.452 94.1514 128.47 93.8777 128.475C93.6041 128.48 93.4216 128.483 93.3304 128.483H89.8412ZM91.7036 126.757H93.3304C93.4824 126.757 93.675 126.752 93.9081 126.742C94.1463 126.732 94.3566 126.709 94.5391 126.674C95.056 126.577 95.4766 126.347 95.801 125.982C96.1253 125.617 96.3635 125.174 96.5155 124.652C96.6726 124.13 96.7512 123.582 96.7512 123.01C96.7512 122.417 96.6726 121.859 96.5155 121.337C96.3584 120.815 96.1152 120.377 95.7857 120.022C95.4614 119.667 95.0459 119.442 94.5391 119.346C94.3566 119.305 94.1463 119.282 93.9081 119.277C93.675 119.267 93.4824 119.262 93.3304 119.262H91.7036V126.757ZM104.113 128.711C103.292 128.711 102.574 128.526 101.961 128.156C101.348 127.786 100.872 127.277 100.532 126.628C100.198 125.974 100.03 125.224 100.03 124.378C100.03 123.516 100.203 122.761 100.547 122.113C100.892 121.464 101.371 120.957 101.984 120.592C102.597 120.227 103.307 120.045 104.113 120.045C104.939 120.045 105.658 120.23 106.271 120.6C106.885 120.97 107.361 121.482 107.701 122.135C108.04 122.784 108.21 123.532 108.21 124.378C108.21 125.229 108.038 125.982 107.693 126.636C107.353 127.284 106.877 127.794 106.264 128.164C105.651 128.528 104.934 128.711 104.113 128.711ZM104.113 126.993C104.842 126.993 105.385 126.75 105.739 126.263C106.094 125.777 106.271 125.148 106.271 124.378C106.271 123.582 106.092 122.949 105.732 122.477C105.372 122.001 104.832 121.763 104.113 121.763C103.621 121.763 103.216 121.874 102.896 122.097C102.582 122.315 102.349 122.622 102.197 123.017C102.045 123.407 101.969 123.861 101.969 124.378C101.969 125.174 102.149 125.81 102.509 126.286C102.873 126.757 103.408 126.993 104.113 126.993ZM113.617 128.711C112.786 128.711 112.056 128.531 111.428 128.171C110.799 127.811 110.308 127.312 109.953 126.674C109.603 126.035 109.429 125.3 109.429 124.469C109.429 123.572 109.601 122.794 109.946 122.135C110.29 121.471 110.769 120.957 111.382 120.592C111.995 120.227 112.705 120.045 113.511 120.045C114.362 120.045 115.084 120.245 115.677 120.645C116.275 121.041 116.719 121.601 117.008 122.325C117.296 123.05 117.405 123.904 117.334 124.887H115.518V124.218C115.513 123.326 115.355 122.675 115.046 122.265C114.737 121.854 114.251 121.649 113.587 121.649C112.837 121.649 112.279 121.882 111.914 122.348C111.55 122.809 111.367 123.486 111.367 124.378C111.367 125.209 111.55 125.853 111.914 126.309C112.279 126.765 112.811 126.993 113.511 126.993C113.962 126.993 114.349 126.894 114.674 126.696C115.003 126.494 115.257 126.202 115.434 125.822L117.243 126.37C116.929 127.109 116.442 127.685 115.784 128.095C115.13 128.506 114.408 128.711 113.617 128.711ZM110.789 124.887V123.504H116.437V124.887H110.789Z" fill="white"/>
<path d="M25.641 38.114L22.1898 27.1676H24.075L26.9636 36.3352L29.8903 27.1676H31.7755L28.3243 38.114H25.641ZM32.7728 28.6575V26.9775H34.6048V28.6575H32.7728ZM32.7728 38.114V29.9042H34.6048V38.114H32.7728ZM36.8818 38.114V29.9042H38.501V31.9034L38.3033 31.645C38.4047 31.3713 38.539 31.123 38.7062 30.9C38.8785 30.6719 39.0838 30.4844 39.322 30.3375C39.5247 30.2006 39.7477 30.0942 39.9909 30.0182C40.2392 29.9371 40.4926 29.889 40.7511 29.8738C41.0095 29.8535 41.2604 29.8636 41.5037 29.9042V31.6146C41.2604 31.5436 40.9791 31.5208 40.6599 31.5461C40.3457 31.5715 40.0619 31.6602 39.8085 31.8122C39.5551 31.949 39.3473 32.1239 39.1851 32.3367C39.028 32.5496 38.9115 32.7928 38.8355 33.0665C38.7594 33.3351 38.7214 33.6265 38.7214 33.9407V38.114H36.8818ZM47.7661 38.114C47.2239 38.2154 46.6918 38.2584 46.1698 38.2432C45.6529 38.2331 45.1892 38.1393 44.7787 37.962C44.3682 37.7795 44.0565 37.4932 43.8437 37.103C43.6562 36.7482 43.5573 36.3859 43.5472 36.0159C43.5371 35.646 43.532 35.2279 43.532 34.7617V27.6237H45.3564V34.6552C45.3564 34.9846 45.3589 35.2735 45.364 35.5218C45.3741 35.7701 45.4274 35.9729 45.5236 36.13C45.7061 36.434 45.9975 36.6038 46.3978 36.6393C46.7982 36.6747 47.2543 36.6545 47.7661 36.5785V38.114ZM42.0421 31.3409V29.9042H47.7661V31.3409H42.0421ZM52.6102 38.3497C52.0021 38.3497 51.5003 38.2483 51.1051 38.0456C50.7098 37.8429 50.3956 37.5844 50.1624 37.2702C49.9293 36.956 49.757 36.6215 49.6455 36.2668C49.534 35.912 49.4606 35.5776 49.4251 35.2634C49.3947 34.9441 49.3795 34.6856 49.3795 34.488V29.9042H51.2343V33.8571C51.2343 34.1104 51.252 34.3968 51.2875 34.716C51.323 35.0302 51.4041 35.3343 51.5308 35.6282C51.6625 35.9171 51.8551 36.1553 52.1085 36.3428C52.3669 36.5303 52.7141 36.6241 53.1499 36.6241C53.383 36.6241 53.6136 36.5861 53.8417 36.51C54.0697 36.434 54.275 36.3048 54.4574 36.1224C54.6449 35.9348 54.7944 35.6789 54.9059 35.3546C55.0174 35.0302 55.0731 34.6198 55.0731 34.1231L56.1602 34.5868C56.1602 35.2862 56.0233 35.9196 55.7497 36.4872C55.4811 37.0548 55.0833 37.5084 54.5562 37.8479C54.0292 38.1824 53.3805 38.3497 52.6102 38.3497ZM55.2936 38.114V35.5674H55.0731V29.9042H56.9127V38.114H55.2936ZM61.3442 38.342C60.7512 38.342 60.2495 38.2306 59.839 38.0076C59.4285 37.7795 59.1169 37.478 58.904 37.103C58.6963 36.728 58.5924 36.3149 58.5924 35.8639C58.5924 35.4686 58.6582 35.1139 58.79 34.7997C58.9218 34.4804 59.1245 34.2067 59.3981 33.9787C59.6718 33.7456 60.0265 33.5555 60.4624 33.4086C60.7918 33.3021 61.1769 33.2058 61.6178 33.1197C62.0638 33.0335 62.5452 32.955 63.0622 32.884C63.5841 32.808 64.1289 32.7269 64.6965 32.6408L64.0428 33.0133C64.0478 32.4457 63.9211 32.0276 63.6627 31.759C63.4042 31.4904 62.9684 31.3561 62.3552 31.3561C61.9852 31.3561 61.628 31.4423 61.2834 31.6146C60.9387 31.7869 60.698 32.0833 60.5612 32.504L58.8888 31.9794C59.0915 31.2851 59.4767 30.7277 60.0443 30.3071C60.6169 29.8864 61.3872 29.6761 62.3552 29.6761C63.085 29.6761 63.726 29.7952 64.2784 30.0334C64.8359 30.2716 65.2489 30.6618 65.5175 31.2041C65.6645 31.4929 65.7532 31.7894 65.7836 32.0935C65.814 32.3925 65.8292 32.7193 65.8292 33.0741V38.114H64.2252V36.3352L64.4913 36.6241C64.1213 37.217 63.688 37.6528 63.1914 37.9316C62.6998 38.2052 62.0841 38.342 61.3442 38.342ZM61.7091 36.8825C62.1246 36.8825 62.4794 36.809 62.7733 36.6621C63.0672 36.5151 63.3003 36.3352 63.4726 36.1224C63.65 35.9095 63.7691 35.7093 63.8299 35.5218C63.9262 35.2887 63.9794 35.0226 63.9896 34.7236C64.0048 34.4196 64.0124 34.1738 64.0124 33.9863L64.5749 34.1535C64.0225 34.2397 63.5487 34.3157 63.1534 34.3816C62.7581 34.4475 62.4185 34.5108 62.1347 34.5716C61.851 34.6274 61.6001 34.6907 61.3822 34.7617C61.1693 34.8377 60.9894 34.9264 60.8425 35.0277C60.6955 35.1291 60.5815 35.2456 60.5004 35.3774C60.4244 35.5092 60.3864 35.6637 60.3864 35.8411C60.3864 36.0438 60.437 36.2237 60.5384 36.3808C60.6397 36.5328 60.7867 36.6545 60.9793 36.7457C61.1769 36.8369 61.4202 36.8825 61.7091 36.8825ZM67.9603 38.114V26.9395H69.7923V38.114H67.9603Z" fill="white"/>
</g>
<rect x="0.351016" y="0.351016" width="310.298" height="164.977" rx="10.706" stroke="#0D073C" stroke-width="0.702032"/>
<defs>
<linearGradient id="paint0_linear_36_1311" x1="281.515" y1="116.888" x2="253.433" y2="117.59" gradientUnits="userSpaceOnUse">
<stop offset="0.21875" stop-color="#F79E1B"/>
<stop offset="0.838542" stop-color="#FF5F00"/>
</linearGradient>
<clipPath id="clip0_36_1311">
<rect width="311" height="165.679" rx="11.057" fill="white"/>
</clipPath>
</defs>
</svg>
