<svg width="17" height="16" viewBox="0 0 17 16" fill="none" xmlns="http://www.w3.org/2000/svg">
<path d="M12.5029 5.33334C12.5029 4.27248 12.0815 3.25506 11.3314 2.50492C10.5812 1.75477 9.5638 1.33334 8.50293 1.33334C7.44206 1.33334 6.42465 1.75477 5.6745 2.50492C4.92436 3.25506 4.50293 4.27248 4.50293 5.33334C4.50293 10 2.50293 11.3333 2.50293 11.3333H14.5029C14.5029 11.3333 12.5029 10 12.5029 5.33334Z" stroke="black" stroke-linecap="round" stroke-linejoin="round"/>
<path d="M9.65628 14C9.53907 14.2021 9.37084 14.3698 9.16843 14.4864C8.96602 14.6029 8.73653 14.6643 8.50294 14.6643C8.26936 14.6643 8.03987 14.6029 7.83746 14.4864C7.63505 14.3698 7.46682 14.2021 7.34961 14" stroke="black" stroke-linecap="round" stroke-linejoin="round"/>
<circle cx="11.5" cy="2.5" r="2.5" fill="#FA3E3E"/>
</svg>
