<svg width="20" height="22" viewBox="0 0 20 22" fill="none" xmlns="http://www.w3.org/2000/svg">
<path d="M16.4139 11.9956V19.7361H4.02905V11.9956" stroke="#1D964A" stroke-width="1.5481" stroke-linecap="round" stroke-linejoin="round"/>
<path d="M18.0028 7.33896L2.52197 7.25137L2.50008 11.1216L17.9809 11.2092L18.0028 7.33896Z" stroke="#1D964A" stroke-width="1.5481" stroke-linecap="round" stroke-linejoin="round"/>
<path d="M10.2217 19.7361V11.9956" stroke="#1D964A" stroke-width="1.5481" stroke-linecap="round" stroke-linejoin="round"/>
<path d="M10.2624 7.2951L6.77917 7.27539C6.26595 7.27249 5.7749 7.06583 5.41406 6.70087C5.05321 6.33592 4.85212 5.84256 4.85502 5.32934C4.85792 4.81612 5.06458 4.32507 5.42954 3.96423C5.79449 3.60338 6.28785 3.40229 6.80107 3.40519C9.51021 3.42052 10.2624 7.2951 10.2624 7.2951Z" stroke="#1D964A" stroke-width="1.5481" stroke-linecap="round" stroke-linejoin="round"/>
<path d="M10.2625 7.29516L13.7457 7.31486C14.2589 7.31777 14.7523 7.11668 15.1172 6.75583C15.4822 6.39498 15.6889 5.90393 15.6918 5.39071C15.6947 4.87749 15.4936 4.38414 15.1327 4.01918C14.7719 3.65423 14.2808 3.44757 13.7676 3.44466C11.0585 3.42934 10.2625 7.29516 10.2625 7.29516Z" stroke="#1D964A" stroke-width="1.5481" stroke-linecap="round" stroke-linejoin="round"/>
</svg>
