<svg width="29" height="28" viewBox="0 0 29 28" fill="none" xmlns="http://www.w3.org/2000/svg">
<path d="M26.7397 19.3174C26.1482 18.816 25.3703 18.6007 24.6029 18.7285L17.1558 19.9701C17.1173 19.327 16.8592 18.7267 16.4007 18.2682C15.9054 17.7739 15.2562 17.5061 14.5465 17.5053C9.81015 17.5193 6.68553 17.5201 5.99515 17.507C5.51303 16.9697 4.82178 16.625 4.04565 16.625H2.29565C1.81265 16.625 1.42065 17.017 1.42065 17.5V26.25C1.42065 26.733 1.81265 27.125 2.29565 27.125H4.04565C4.81828 27.125 5.5069 26.7829 5.98815 26.25H14.5457C14.6069 26.25 14.669 26.2439 14.7285 26.2308L25.5873 23.9041C26.7939 23.6451 27.6698 22.5619 27.6698 21.3273C27.6707 20.5511 27.3312 19.8188 26.7397 19.3174ZM4.04565 25.375H3.17065V18.375H4.04565C4.52778 18.375 4.92065 18.7679 4.92065 19.25V24.5C4.92065 24.9821 4.52778 25.375 4.04565 25.375ZM25.2215 22.1926L14.4529 24.5H6.67065V19.2622C7.75915 19.271 9.96328 19.2684 14.5509 19.2553H14.5535C14.7845 19.2553 15.0007 19.3445 15.1643 19.5072C15.3297 19.6726 15.4207 19.8923 15.4207 20.1276C15.4207 20.6089 15.0295 21 14.5483 21H10.1707C9.68765 21 9.29565 21.392 9.29565 21.875C9.29565 22.358 9.68765 22.75 10.1707 22.75H14.5483C15.3314 22.75 16.0279 22.3974 16.5092 21.8514L24.8908 20.454C25.1515 20.412 25.4062 20.4811 25.6083 20.6517C25.8095 20.8232 25.9207 21.063 25.9207 21.3273C25.9207 21.742 25.6267 22.106 25.2215 22.1926ZM12.7957 16.625H16.2957C20.6374 16.625 24.1707 13.0918 24.1707 8.75C24.1707 4.40825 20.6374 0.875 16.2957 0.875H12.7957C8.4539 0.875 4.92065 4.40825 4.92065 8.75C4.92065 13.0918 8.4539 16.625 12.7957 16.625ZM22.4207 8.75C22.4207 11.5273 20.5613 13.874 18.0238 14.623C19.6434 13.1792 20.6707 11.0845 20.6707 8.75C20.6707 6.4155 19.6434 4.32075 18.0238 2.877C20.5613 3.626 22.4207 5.97275 22.4207 8.75ZM12.7957 2.625C16.1732 2.625 18.9207 5.3725 18.9207 8.75C18.9207 12.1275 16.1732 14.875 12.7957 14.875C9.41815 14.875 6.67065 12.1275 6.67065 8.75C6.67065 5.3725 9.41815 2.625 12.7957 2.625Z" fill="white"/>
<path d="M12.5 6L13.22 7.50895L14.8776 7.72746L13.665 8.87855L13.9695 10.5225L12.5 9.725L11.0305 10.5225L11.335 8.87855L10.1224 7.72746L11.78 7.50895L12.5 6Z" stroke="white" stroke-linejoin="round"/>
</svg>
