<svg width="30" height="29" viewBox="0 0 30 29" fill="none" xmlns="http://www.w3.org/2000/svg">
<path d="M27.5771 7.23699C27.5771 4.23094 25.3709 1.77145 22.6745 1.77145C20.407 1.77145 18.5073 3.54775 17.9557 5.8706H4.90251C3.1866 5.8706 1.83838 7.37363 1.83838 9.28656V21.584C1.83838 23.4969 3.1866 25 4.90251 25H22.0617C23.7776 25 25.1258 23.4969 25.1258 21.584V11.951C26.5966 10.9945 27.5771 9.28656 27.5771 7.23699ZM23.9001 19.5344H18.9362C17.9557 19.5344 17.159 18.9879 17.159 17.8265C17.159 16.665 18.017 16.4601 18.9975 16.4601H23.9001V19.5344ZM23.9001 15.0937H18.9362C17.2816 15.0937 15.9334 15.9135 15.9334 17.8265C15.9334 19.7394 17.2816 20.9008 18.9362 20.9008H23.9001V21.584C23.9001 22.7454 23.1035 23.6336 22.0617 23.6336H4.90251C3.86071 23.6336 3.06403 22.7454 3.06403 21.584V9.28656C3.06403 8.12514 3.86071 7.23699 4.90251 7.23699H17.7719C17.7719 10.243 19.978 12.7025 22.6745 12.7025C23.1035 12.7025 23.5324 12.6342 23.9001 12.4976V15.0937ZM22.6745 11.3361C20.6522 11.3361 18.9975 9.49152 18.9975 7.23699C18.9975 4.98245 20.6522 3.13784 22.6745 3.13784C24.6968 3.13784 26.3514 4.98245 26.3514 7.23699C26.3514 9.49152 24.6968 11.3361 22.6745 11.3361Z" fill="white"/>
<path d="M18.9976 18.168C19.336 18.168 19.6104 17.8622 19.6104 17.4849C19.6104 17.1075 19.336 16.8017 18.9976 16.8017C18.6591 16.8017 18.3848 17.1075 18.3848 17.4849C18.3848 17.8622 18.6591 18.168 18.9976 18.168Z" fill="white"/>
<path d="M20.4375 5.89572C20.4374 5.46197 20.5742 5.04151 20.8248 4.7055C21.0754 4.36949 21.4243 4.13857 21.8125 4.05182V4.01418C21.8125 3.81458 21.8849 3.62315 22.0139 3.48201C22.1428 3.34086 22.3177 3.26157 22.5 3.26157C22.6823 3.26157 22.8572 3.34086 22.9861 3.48201C23.1151 3.62315 23.1875 3.81458 23.1875 4.01418H23.545C23.7273 4.01418 23.9022 4.09348 24.0311 4.23462C24.1601 4.37576 24.2325 4.56719 24.2325 4.7668C24.2325 4.9664 24.1601 5.15783 24.0311 5.29897C23.9022 5.44012 23.7273 5.51941 23.545 5.51941H22.17C22.0788 5.51941 21.9914 5.55906 21.9269 5.62963C21.8625 5.7002 21.8263 5.79591 21.8263 5.89572C21.8263 5.99552 21.8625 6.09124 21.9269 6.16181C21.9914 6.23238 22.0788 6.27202 22.17 6.27202H22.8575C23.3133 6.22412 23.7679 6.37641 24.1212 6.69539C24.4744 7.01437 24.6975 7.47392 24.7412 7.97293C24.785 8.47194 24.6459 8.96955 24.3545 9.35628C24.0631 9.74301 23.6433 9.98718 23.1875 10.0351C23.1875 10.2347 23.1151 10.4261 22.9861 10.5673C22.8572 10.7084 22.6823 10.7877 22.5 10.7877C22.3177 10.7877 22.1428 10.7084 22.0139 10.5673C21.8849 10.4261 21.8125 10.2347 21.8125 10.0351H21.4688C21.2864 10.0351 21.1115 9.9558 20.9826 9.81465C20.8537 9.67351 20.7812 9.48208 20.7812 9.28248C20.7812 9.08287 20.8537 8.89144 20.9826 8.7503C21.1115 8.60916 21.2864 8.52986 21.4688 8.52986H22.8437C22.9349 8.52986 23.0224 8.49022 23.0868 8.41965C23.1513 8.34908 23.1875 8.25336 23.1875 8.15356C23.1875 8.05375 23.1513 7.95804 23.0868 7.88747C23.0224 7.8169 22.9349 7.77725 22.8437 7.77725H22.1562C21.7004 7.77725 21.2632 7.57902 20.9409 7.22616C20.6186 6.87331 20.4375 6.39473 20.4375 5.89572ZM22.5 11.5403C23.3158 11.5403 24.1134 11.2755 24.7917 10.7793C25.4701 10.2831 25.9988 9.57785 26.311 8.75271C26.6232 7.92758 26.7049 7.01963 26.5457 6.14367C26.3866 5.26772 25.9937 4.4631 25.4168 3.83157C24.8399 3.20004 24.1049 2.76996 23.3047 2.59572C22.5046 2.42149 21.6752 2.51091 20.9214 2.85269C20.1677 3.19447 19.5234 3.77326 19.0702 4.51586C18.6169 5.25846 18.375 6.13152 18.375 7.02464C18.375 8.22227 18.8096 9.37085 19.5832 10.2177C20.3568 11.0646 21.406 11.5403 22.5 11.5403Z" fill="white"/>
</svg>
